<?xml version="1.0" standalone="no"?><!DOCTYPE svg PUBLIC "-//W3C//DTD SVG 1.1//EN" "http://www.w3.org/Graphics/SVG/1.1/DTD/svg11.dtd"><svg class="icon" width="200px" height="200.00px" viewBox="0 0 1024 1024" version="1.1" xmlns="http://www.w3.org/2000/svg"><path d="M127.059033 1021.946982C57.484518 1021.946982 1.026509 965.374916 1.026509 895.914458 1.026509 826.339942 57.598574 769.881934 127.059033 769.881934c69.574515 0 126.032524 56.572065 126.032524 126.032524S196.519492 1021.946982 127.059033 1021.946982zM745.131655 1021.946982c-69.574515 0-126.032524-56.572065-126.032524-126.032524 0-69.574515 56.572065-126.032524 126.032524-126.032524 69.574515 0 126.032524 56.572065 126.032524 126.032524S814.592114 1021.946982 745.131655 1021.946982z" fill="#25467A" /><path d="M886.219648 1021.946982c-69.574515 0-126.032524-56.572065-126.032524-126.032524 0-69.574515 56.572065-126.032524 126.032524-126.032524 69.574515 0 126.032524 56.572065 126.032524 126.032524S955.680107 1021.946982 886.219648 1021.946982z" fill="#25467A" /><path d="M785.279572 895.914458c0 55.773669 45.166407 100.940076 100.940076 100.940075s100.940076-45.166407 100.940076-100.940075v-0.114057c0-55.773669-45.166407-100.940076-100.940076-100.940076s-100.826019 45.166407-100.940076 101.054133c0-0.114057 0-0.114057 0 0z" fill="#25467A" /><path d="M808.090889 895.914458c0 43.113388 34.901314 78.128759 78.128759 78.128759s78.128759-34.901314 78.128759-78.128759v-0.114057c0-43.113388-34.901314-78.128759-78.128759-78.128759-43.113388 0-78.014703 35.015371-78.128759 78.242816 0-0.114057 0 0 0 0z" fill="#FFCC80" /><path d="M829.41947 867.742482c0 15.853865 12.774337 28.628202 28.628202 28.628202 15.853865 0 28.628202-12.774337 28.628202-28.628202v-0.114057c0-15.853865-12.774337-28.628202-28.628202-28.628202-15.739808 0.114057-28.628202 12.888394-28.628202 28.742259z" fill="#FFDBA6" /><path d="M48.930274 895.914458c0 43.113388 34.901314 78.128759 78.128759 78.128759 43.113388 0 78.128759-34.901314 78.128759-78.128759v-0.114057c0-43.113388-34.901314-78.128759-78.128759-78.128759-43.113388 0-78.128759 35.015371-78.128759 78.242816 0-0.114057 0 0 0 0z" fill="#FFCC80" /><path d="M70.258855 867.742482c0 15.853865 12.774337 28.628202 28.628202 28.628202s28.628202-12.774337 28.628203-28.628202v-0.114057c0-15.853865-12.774337-28.628202-28.628203-28.628202s-28.628202 12.888394-28.628202 28.742259z" fill="#FFDBA6" /><path d="M474.475384 1024c-155.002896 0-257.881934-14.02896-305.899755-41.630653-20.073959-11.519715-32.620183-32.848296-33.646692-57.028291L99.45734 85.656494v-1.02651c0-9.808866 3.193584-34.331031 32.506126-49.500557 7.755848-3.99198 17.222544-7.413678 29.426599-10.493205 18.591223-4.67632 44.482067-8.782357 76.646023-12.204054C301.451548 5.702829 385.397193 2.053018 474.361328 2.053018S647.271107 5.702829 710.686567 12.432168c32.278013 3.421697 58.054801 7.527734 76.646024 12.204054 12.318111 3.079528 21.670751 6.387169 29.426598 10.493205 29.312542 15.169526 32.506126 39.691691 32.506126 49.500557v1.02651l-35.471597 839.570505c-1.026509 24.179996-13.572733 45.508577-33.532635 57.028292-47.903765 27.71575-150.782802 41.744709-305.785699 41.744709z" fill="#25467A" /><path d="M766.00401 923.288037c-0.34217 7.527734-3.99198 14.257073-9.580753 17.564714-20.986411 12.089998-86.568946 35.243484-281.947873 35.243484s-261.075518-23.267543-282.061929-35.35754c-5.702829-3.193584-9.35264-10.036979-9.694809-17.564714l-35.357541-838.543997h654.000445l-35.35754 838.658053z" fill="#FFFFFF" /><path d="M147.361105 84.629984a327.000223 34.673201 0 1 0 654.000445 0 327.000223 34.673201 0 1 0-654.000445 0Z" fill="#EEEEEE" /><path d="M474.475384 925.455112c-194.010247 0-266.778347-44.025841-267.690799-61.932724L173.251949 219.672978h602.332814L741.938071 863.408331c-0.912453 17.906883-73.452439 62.046781-267.462687 62.046781z" fill="#FFF3E0" /><path d="M173.251949 219.672978a301.109378 36.04188 0 1 0 602.218757 0 301.109378 36.04188 0 1 0-602.218757 0Z" fill="#FFE0B2" /><path d="M474.361328 605.754511c-35.243484 0-63.871686-28.628202-63.871687-63.871686 0-7.071508 5.702829-12.774337 12.774338-12.774338s12.774337 5.702829 12.774337 12.774338c0 21.214524 17.108487 38.323012 38.323012 38.323011s38.323012-17.108487 38.323011-38.323011c0-7.071508 5.702829-12.774337 12.774338-12.774338s12.774337 5.702829 12.774337 12.774338c0 35.243484-28.514146 63.871686-63.871686 63.871686zM308.294943 439.688127c0 21.214524 17.108487 38.323012 38.323012 38.323011s38.323012-17.108487 38.323012-38.323011-17.108487-38.323012-38.323012-38.323012c-21.100468 0-38.208955 17.108487-38.323012 38.323012zM563.781689 439.688127c0 21.214524 17.108487 38.323012 38.323011 38.323011s38.323012-17.108487 38.323012-38.323011-17.108487-38.323012-38.323012-38.323012-38.208955 17.108487-38.323011 38.323012z" fill="#25467A" /><path d="M295.520606 503.559813h-51.097349c-14.143016 0-25.548675 11.405658-25.548675 25.548674s11.405658 25.548675 25.548675 25.548675h51.097349c14.143016 0 25.548675-11.405658 25.548674-25.548675s-11.405658-25.548675-25.548674-25.548674z m408.778793 0h-51.09735c-14.143016 0-25.548675 11.405658-25.548674 25.548674s11.405658 25.548675 25.548674 25.548675h51.09735c14.143016 0 25.548675-11.405658 25.548674-25.548675s-11.405658-25.548675-25.548674-25.548674z" fill="#FFCC80" /><path d="M644.191579 895.914458c0 55.773669 45.166407 100.940076 100.940076 100.940075s100.940076-45.166407 100.940076-100.940075v-0.114057c0-55.773669-45.166407-100.940076-100.940076-100.940076s-100.826019 45.166407-100.940076 101.054133c0-0.114057 0-0.114057 0 0z" fill="#25467A" /><path d="M667.002896 895.914458c0 43.113388 34.901314 78.128759 78.128759 78.128759s78.128759-34.901314 78.128759-78.128759v-0.114057c0-43.113388-34.901314-78.128759-78.128759-78.128759-43.113388 0-78.014703 35.015371-78.128759 78.242816 0-0.114057 0 0 0 0z" fill="#FFCC80" /><path d="M688.331477 867.742482c0 15.853865 12.774337 28.628202 28.628202 28.628202 15.853865 0 28.628202-12.774337 28.628202-28.628202v-0.114057c0-15.853865-12.774337-28.628202-28.628202-28.628202-15.739808 0.114057-28.628202 12.888394-28.628202 28.742259z" fill="#FFDBA6" /></svg>