<?xml version="1.0" standalone="no"?><!DOCTYPE svg PUBLIC "-//W3C//DTD SVG 1.1//EN" "http://www.w3.org/Graphics/SVG/1.1/DTD/svg11.dtd"><svg class="icon" width="200px" height="200.00px" viewBox="0 0 1024 1024" version="1.1" xmlns="http://www.w3.org/2000/svg"><path d="M673.57 685l-28 2.24c-32.52 2.6-99.64 3.9-132.24 3.91-32.79 0-100.11-1.3-132.83-3.91l-28-2.24a131.59 131.59 0 0 1-120.76-120.66l-2.45-30.66c-2.43-30.37-2.43-80 0-110.42l2.45-30.67a131.58 131.58 0 0 1 120.68-120.68l28-2.24c32.62-2.6 99.84-3.91 132.54-3.91s99.91 1.31 132.53 3.91l28 2.24a131.57 131.57 0 0 1 120.76 120.68l2.24 28c2.61 32.62 2.78 97.44 0 115.68l-2.24 28A131.58 131.58 0 0 1 673.57 685z" fill="#CAE0FF" /><path d="M516.24 889.16A79 79 0 0 1 463.48 869l-57.33-51.22c-22.35-0.95-42.28-2.12-59.34-3.48l-40.26-3.22a222.39 222.39 0 0 1-204-204l-3.51-44C95.38 517 95.38 442 99.07 396l3.51-44a222.39 222.39 0 0 1 204-204l40.26-3.21c50.51-4 119.87-5.85 166.19-5.85s115.67 1.81 166.19 5.85l40.22 3.21a222.39 222.39 0 0 1 204 204l3.22 40.26c3.79 47.48 4.42 143.78-0.07 175.55l-3.15 39.36a222.39 222.39 0 0 1-204 204l-40.25 3.22c-15.25 1.21-32.89 2.28-52.54 3.18L569 869a79.08 79.08 0 0 1-52.76 20.16zM513 193.91c-45.23 0-112.81 1.76-161.81 5.67l-40.26 3.22a167.37 167.37 0 0 0-153.52 153.52l-3.52 44c-3.49 43.68-3.49 114.68 0 158.38l3.52 44a167.37 167.37 0 0 0 153.52 153.55l40.26 3.22c18.53 1.48 41.69 2.78 67 3.75a27.53 27.53 0 0 1 17.26 7L500.12 828a24.17 24.17 0 0 0 32.24 0l65-58.05a27.53 27.53 0 0 1 17.19-7c23-0.94 43.24-2.12 60.3-3.48l40.25-3.22a167.39 167.39 0 0 0 153.49-153.52l3.21-40.25c0.06-0.66 0.13-1.31 0.23-2 3.63-23.85 3.5-117.32-0.23-163.95l-3.21-40.26A167.39 167.39 0 0 0 715.06 202.8l-40.25-3.22c-49.01-3.91-116.58-5.67-161.81-5.67z" fill="#1A5F8E" /><path d="M323.99 487.5m-46.5 0a46.5 46.5 0 1 0 93 0 46.5 46.5 0 1 0-93 0Z" fill="#1A5F8E" /><path d="M512.99 487.5m-46.5 0a46.5 46.5 0 1 0 93 0 46.5 46.5 0 1 0-93 0Z" fill="#1A5F8E" /><path d="M701.99 487.5m-46.5 0a46.5 46.5 0 1 0 93 0 46.5 46.5 0 1 0-93 0Z" fill="#1A5F8E" /></svg>